{"title":"Breakout.S01.Season.1.Complete.HDTV.P2P4FREE","uid":9758289,"size":1917445530,"categoryP":"video","categoryS":"tv_shows","magnet":"?xt=urn:btih:e419e43a740c2b2122302f730db2eec994d29af7&amp;dn=Breakout.S01.Season.1.Complete.HDTV.P2P4FREE&amp;tr=udp%3A%2F%2Ftracker.openbittorrent.com%3A80&amp;tr=udp%3A%2F%2Fopen.demonii.com%3A1337&amp;tr=udp%3A%2F%2Ftracker.coppersurfer.tk%3A6969&amp;tr=udp%3A%2F%2Fexodus.desync.com%3A6969","seeders":1,"leechers":0,"uploader":"P2P4FREE","files":8,"time":1394773103,"description":"This high octane series tells the dramatic stories of some of the most ingenious jailbreaks in recent history, and the detective work that led to the successful recapture of escapees.\n\nEach breakout is told from the perspectives of the criminals and the teams who hunt them down.\n\nIMDB Rating : 8.7\n\nGeneral\n---------------------------------------------\nFormat                                   : MPEG-4\nFormat profile                           : Base Media\nCodec ID                                 : isom\nOverall bit rate mode                    : Variable\nOverall bit rate                         : 710 Kbps\nWriting application                      : Lavf53.21.1\n\nVideo\n---------------------------------------------\nID                                       : 1\nFormat                                   : AVC\nFormat/Info                              : Advanced Video Codec\nFormat profile                           : &lt;a class=&quot;__cf_email__&quot; href=&quot;/cdn-cgi/l/email-protection&quot; data-cfemail=&quot;82cfe3ebecc2ceb1acb2&quot;&gt;[email&amp;#160;protected]&lt;/a&gt;&lt;script cf-hash='f9e31' type=&quot;text/javascript&quot;&gt;\n/* &lt;![CDATA[ */!function(){try{var t=&quot;currentScript&quot;in document?document.currentScript:function(){for(var t=document.getElementsByTagName(&quot;script&quot;),e=t.length;e--;)if(t[e].getAttribute(&quot;cf-hash&quot;))return t[e]}();if(t&amp;&amp;t.previousSibling){var e,r,n,i,c=t.previousSibling,a=c.getAttribute(&quot;data-cfemail&quot;);if(a){for(e=&quot;&quot;,r=parseInt(a.substr(0,2),16),n=2;a.length-n;n+=2)i=parseInt(a.substr(n,2),16)^r,e+=String.fromCharCode(i);e=document.createTextNode(e),c.parentNode.replaceChild(e,c)}}}catch(u){}}();/* ]]&gt; */&lt;/script&gt;\nFormat settings, CABAC                   : Yes\nFormat settings, ReFrames                : 3 frames\nCodec ID                                 : avc1\nCodec ID/Info                            : Advanced Video Coding\nBit rate                                 : 523 Kbps\nWidth                                    : 624 pixels\nHeight                                   : 352 pixels\nDisplay aspect ratio                     : 16:9\nFrame rate mode                          : Constant\nFrame rate                               : 25.000 fps\nColor space                              : YUV\nChroma subsampling                       : 4:2:0\nBit depth                                : 8 bits\nScan type                                : Progressive\nBits/(Pixel*Frame)                       : 0.095\nStream size                              : 169 MiB (74%)\nWriting library                          : x264 core 123 r2189 35cf912\n\nAudio\n---------------------------------------------\nID                                       : 2\nFormat                                   : AAC\nFormat/Info                              : Advanced Audio Codec\nFormat profile                           : LC\nCodec ID                                 : 40\nDuration                                 : 45mn 14s\nBit rate mode                            : Variable\nBit rate                                 : 182 Kbps\nChannel(s)                               : 2 channels\nChannel positions                        : Front: L R\nSampling rate                            : 44.1 KHz\nCompression mode                         : Lossy\nDelay relative to video                  : -1ms\nStream size                              : 58.8 MiB (26%)\n","torrent":{"xt":"urn:btih:e419e43a740c2b2122302f730db2eec994d29af7","amp;dn":"Breakout.S01.Season.1.Complete.HDTV.P2P4FREE","amp;tr":["udp%3A%2F%2Ftracker.openbittorrent.com%3A80","udp%3A%2F%2Fopen.demonii.com%3A1337","udp%3A%2F%2Ftracker.coppersurfer.tk%3A6969","udp%3A%2F%2Fexodus.desync.com%3A6969"],"infoHash":"e419e43a740c2b2122302f730db2eec994d29af7","infoHashBuffer":{"type":"Buffer","data":[228,25,228,58,116,12,43,33,34,48,47,115,13,178,238,201,148,210,154,247]},"announce":[],"urlList":[]}}